<svg width="40" height="40" viewBox="0 0 40 40" fill="none" xmlns="http://www.w3.org/2000/svg">
<path d="M4 6.66675V12.0001H9.33333V6.66675H4ZM16 8.00008C15.8233 7.99758 15.6479 8.03022 15.4839 8.09611C15.32 8.16199 15.1708 8.25981 15.0449 8.38387C14.9191 8.50793 14.8192 8.65576 14.751 8.81877C14.6828 8.98178 14.6477 9.15671 14.6477 9.33341C14.6477 9.51011 14.6828 9.68505 14.751 9.84806C14.8192 10.0111 14.9191 10.1589 15.0449 10.283C15.1708 10.407 15.32 10.5048 15.4839 10.5707C15.6479 10.6366 15.8233 10.6692 16 10.6667H34.6667C34.8434 10.6692 35.0188 10.6366 35.1827 10.5707C35.3467 10.5048 35.4959 10.407 35.6217 10.283C35.7476 10.1589 35.8475 10.0111 35.9157 9.84806C35.9839 9.68505 36.019 9.51011 36.019 9.33341C36.019 9.15671 35.9839 8.98178 35.9157 8.81877C35.8475 8.65576 35.7476 8.50793 35.6217 8.38387C35.4959 8.25981 35.3467 8.16199 35.1827 8.09611C35.0188 8.03022 34.8434 7.99758 34.6667 8.00008H16ZM4 17.3334V22.6667H9.33333V17.3334H4ZM16 18.6667C15.8233 18.6642 15.6479 18.6969 15.4839 18.7628C15.32 18.8287 15.1708 18.9265 15.0449 19.0505C14.9191 19.1746 14.8192 19.3224 14.751 19.4854C14.6828 19.6484 14.6477 19.8234 14.6477 20.0001C14.6477 20.1768 14.6828 20.3517 14.751 20.5147C14.8192 20.6777 14.9191 20.8256 15.0449 20.9496C15.1708 21.0737 15.32 21.1715 15.4839 21.2374C15.6479 21.3033 15.8233 21.3359 16 21.3334H34.6667C34.8434 21.3359 35.0188 21.3033 35.1827 21.2374C35.3467 21.1715 35.4959 21.0737 35.6217 20.9496C35.7476 20.8256 35.8475 20.6777 35.9157 20.5147C35.9839 20.3517 36.019 20.1768 36.019 20.0001C36.019 19.8234 35.9839 19.6484 35.9157 19.4854C35.8475 19.3224 35.7476 19.1746 35.6217 19.0505C35.4959 18.9265 35.3467 18.8287 35.1827 18.7628C35.0188 18.6969 34.8434 18.6642 34.6667 18.6667H16ZM4 28.0001V33.3334H9.33333V28.0001H4ZM16 29.3334C15.8233 29.3309 15.6479 29.3636 15.4839 29.4294C15.32 29.4953 15.1708 29.5931 15.0449 29.7172C14.9191 29.8413 14.8192 29.9891 14.751 30.1521C14.6828 30.3151 14.6477 30.49 14.6477 30.6667C14.6477 30.8434 14.6828 31.0184 14.751 31.1814C14.8192 31.3444 14.9191 31.4922 15.0449 31.6163C15.1708 31.7404 15.32 31.8382 15.4839 31.9041C15.6479 31.9699 15.8233 32.0026 16 32.0001H34.6667C34.8434 32.0026 35.0188 31.9699 35.1827 31.9041C35.3467 31.8382 35.4959 31.7404 35.6217 31.6163C35.7476 31.4922 35.8475 31.3444 35.9157 31.1814C35.9839 31.0184 36.019 30.8434 36.019 30.6667C36.019 30.49 35.9839 30.3151 35.9157 30.1521C35.8475 29.9891 35.7476 29.8413 35.6217 29.7172C35.4959 29.5931 35.3467 29.4953 35.1827 29.4294C35.0188 29.3636 34.8434 29.3309 34.6667 29.3334H16Z" fill="#A0A5BA"/>
</svg>
