<svg width="40" height="40" viewBox="0 0 40 40" fill="none" xmlns="http://www.w3.org/2000/svg">
<path d="M4 6.6665V11.9998H9.33333V6.6665H4ZM16 7.99984C15.8233 7.99734 15.6479 8.02998 15.4839 8.09587C15.32 8.16175 15.1708 8.25956 15.0449 8.38362C14.9191 8.50768 14.8192 8.65551 14.751 8.81852C14.6828 8.98153 14.6477 9.15647 14.6477 9.33317C14.6477 9.50987 14.6828 9.68481 14.751 9.84782C14.8192 10.0108 14.9191 10.1587 15.0449 10.2827C15.1708 10.4068 15.32 10.5046 15.4839 10.5705C15.6479 10.6364 15.8233 10.669 16 10.6665H34.6667C34.8434 10.669 35.0188 10.6364 35.1827 10.5705C35.3467 10.5046 35.4959 10.4068 35.6217 10.2827C35.7476 10.1587 35.8475 10.0108 35.9157 9.84782C35.9839 9.68481 36.019 9.50987 36.019 9.33317C36.019 9.15647 35.9839 8.98153 35.9157 8.81852C35.8475 8.65551 35.7476 8.50768 35.6217 8.38362C35.4959 8.25956 35.3467 8.16175 35.1827 8.09587C35.0188 8.02998 34.8434 7.99734 34.6667 7.99984H16ZM4 17.3332V22.6665H9.33333V17.3332H4ZM16 18.6665C15.8233 18.664 15.6479 18.6966 15.4839 18.7625C15.32 18.8284 15.1708 18.9262 15.0449 19.0503C14.9191 19.1743 14.8192 19.3222 14.751 19.4852C14.6828 19.6482 14.6477 19.8231 14.6477 19.9998C14.6477 20.1765 14.6828 20.3515 14.751 20.5145C14.8192 20.6775 14.9191 20.8253 15.0449 20.9494C15.1708 21.0734 15.32 21.1713 15.4839 21.2371C15.6479 21.303 15.8233 21.3357 16 21.3332H34.6667C34.8434 21.3357 35.0188 21.303 35.1827 21.2371C35.3467 21.1713 35.4959 21.0734 35.6217 20.9494C35.7476 20.8253 35.8475 20.6775 35.9157 20.5145C35.9839 20.3515 36.019 20.1765 36.019 19.9998C36.019 19.8231 35.9839 19.6482 35.9157 19.4852C35.8475 19.3222 35.7476 19.1743 35.6217 19.0503C35.4959 18.9262 35.3467 18.8284 35.1827 18.7625C35.0188 18.6966 34.8434 18.664 34.6667 18.6665H16ZM4 27.9998V33.3332H9.33333V27.9998H4ZM16 29.3332C15.8233 29.3307 15.6479 29.3633 15.4839 29.4292C15.32 29.4951 15.1708 29.5929 15.0449 29.717C14.9191 29.841 14.8192 29.9888 14.751 30.1519C14.6828 30.3149 14.6477 30.4898 14.6477 30.6665C14.6477 30.8432 14.6828 31.0181 14.751 31.1812C14.8192 31.3442 14.9191 31.492 15.0449 31.616C15.1708 31.7401 15.32 31.8379 15.4839 31.9038C15.6479 31.9697 15.8233 32.0023 16 31.9998H34.6667C34.8434 32.0023 35.0188 31.9697 35.1827 31.9038C35.3467 31.8379 35.4959 31.7401 35.6217 31.616C35.7476 31.492 35.8475 31.3442 35.9157 31.1812C35.9839 31.0181 36.019 30.8432 36.019 30.6665C36.019 30.4898 35.9839 30.3149 35.9157 30.1519C35.8475 29.9888 35.7476 29.841 35.6217 29.717C35.4959 29.5929 35.3467 29.4951 35.1827 29.4292C35.0188 29.3633 34.8434 29.3307 34.6667 29.3332H16Z" fill="#A0A5BA"/>
</svg>
