<svg width="24" height="24" viewBox="0 0 24 24" fill="none" xmlns="http://www.w3.org/2000/svg">
<circle cx="12" cy="12" r="12" fill="#EDFFF0"/>
<path fill-rule="evenodd" clip-rule="evenodd" d="M12.1601 7.04004C11.8388 7.04004 11.5783 7.30053 11.5783 7.62186V11.5782H7.62186C7.30053 11.5782 7.04004 11.8387 7.04004 12.16C7.04004 12.4814 7.30053 12.7419 7.62186 12.7419H11.5783V16.6982C11.5783 17.0196 11.8388 17.28 12.1601 17.28C12.4814 17.28 12.7419 17.0196 12.7419 16.6982V12.7419H16.6982C17.0196 12.7419 17.28 12.4814 17.28 12.16C17.28 11.8387 17.0196 11.5782 16.6982 11.5782H12.7419V7.62186C12.7419 7.30053 12.4814 7.04004 12.1601 7.04004Z" fill="#2BC13A"/>
</svg>
