<svg width="16" height="16" viewBox="0 0 16 16" fill="none" xmlns="http://www.w3.org/2000/svg">
<g clip-path="url(#clip0)">
<path d="M2.66683 2.66675C1.93016 2.66675 1.3335 3.26341 1.3335 4.00008V12.0001C1.3335 12.7367 1.93016 13.3334 2.66683 13.3334H8.00016V12.0001C8.00016 11.2634 8.59683 10.6667 9.3335 10.6667H12.0002V10.0001V8.87117C12.0002 8.09984 12.9334 7.71386 13.478 8.2592L14.2762 9.05737L14.6668 9.448V4.00008C14.6668 3.26341 14.0702 2.66675 13.3335 2.66675H2.66683ZM2.66683 4.00008L8.00016 7.33341L13.3335 4.00008V5.33341L8.00016 8.66675L2.66683 5.33341V4.00008ZM13.3335 10.0001V12.0001H9.3335V13.3334H13.3335V15.3334L16.0002 12.6667L13.3335 10.0001Z" fill="#5B5B5B"/>
</g>
<defs>
<clipPath id="clip0">
<rect width="16" height="16" fill="white"/>
</clipPath>
</defs>
</svg>
