<svg width="16" height="17" viewBox="0 0 16 17" fill="none" xmlns="http://www.w3.org/2000/svg">
<g clip-path="url(#clip0)">
<path d="M3.33333 2.5C2.59667 2.5 2 3.09667 2 3.83333V13.1667C2 13.9033 2.59667 14.5 3.33333 14.5H7.05859C6.88793 14.0793 6.77024 13.6327 6.71224 13.1667H3.33333V5.83333H12.6667V7.21224C13.1327 7.27024 13.5793 7.38793 14 7.55859V3.83333C14 3.09667 13.4033 2.5 12.6667 2.5H3.33333ZM4.66667 7.83333V9.16667H6V7.83333H4.66667ZM7.33333 7.83333V9.16667H7.83984C8.27384 8.626 8.81057 8.17133 9.42057 7.83333H7.33333ZM12 8.5V9.83333C13.4667 9.83333 14.6667 11.0333 14.6667 12.5C14.6667 13.9667 13.4667 15.1667 12 15.1667C10.5947 15.1667 9.4469 14.0617 9.35156 12.6797L8.14063 11.4688C8.05263 11.7981 8 12.1433 8 12.5C8 14.7 9.8 16.5 12 16.5C14.2 16.5 16 14.7 16 12.5C16 10.3 14.2 8.5 12 8.5ZM9.67708 9.23437L8.73437 10.1771L11.5286 12.9714C11.6586 13.1014 11.8293 13.1667 12 13.1667C12.1707 13.1667 12.3414 13.1014 12.4714 12.9714C12.732 12.7107 12.732 12.2893 12.4714 12.0286L9.67708 9.23437ZM4.66667 10.5V11.8333H6V10.5H4.66667Z" fill="#5B5B5B"/>
</g>
<defs>
<clipPath id="clip0">
<rect width="16" height="16" fill="white" transform="translate(0 0.5)"/>
</clipPath>
</defs>
</svg>
