<svg xmlns="http://www.w3.org/2000/svg" viewBox="114.742 54 59.347 52.5">
  <defs>
    <style>
      .cls-1, .cls-3 {
        fill: #ffffff;
      }

      .cls-1, .cls-2 {
        fill-rule: evenodd;
      }

      .cls-2 {
        fill: #08397b;
      }
    </style>
  </defs>
  <g id="NBU_Logo" data-name="NBU Logo" transform="translate(-122.258 27)">
    <g id="Group_50" data-name="Group 50" transform="translate(122 -14)">
      <path id="Path_20" data-name="Path 20" class="cls-1" d="M1398.858,838.43v27.791h8.5V828.74q-5.372,2.549-6.119,6.205Q1398.8,835.2,1398.858,838.43Z" transform="translate(-1267.755 -785.191)"/>
      <path id="Path_21" data-name="Path 21" class="cls-1" d="M1465.691,838.43v27.791h-8.5V828.74q5.372,2.549,6.119,6.205Q1465.743,835.2,1465.691,838.43Z" transform="translate(-1306.876 -785.191)"/>
      <path id="Path_22" data-name="Path 22" class="cls-1" d="M1431.714,821a19.931,19.931,0,0,1,4.506,2.078v37.955h-8.84V822.976A32.349,32.349,0,0,1,1431.714,821Z" transform="translate(-1286.884 -780)"/>
      <path id="Path_23" data-name="Path 23" class="cls-2" d="M1401.9,931.38h2.931a.283.283,0,0,1,.28.28v.817a.283.283,0,0,1-.28.28H1401.9a.283.283,0,0,1-.28-.28v-.817A.283.283,0,0,1,1401.9,931.38Z" transform="translate(-1269.608 -854.026)"/>
      <path id="Path_24" data-name="Path 24" class="cls-2" d="M1401.9,906.92h1.874a.283.283,0,0,1,.28.28v1.1H1401.9a.283.283,0,0,1-.28-.28V907.2a.283.283,0,0,1,.28-.28Z" transform="translate(-1269.608 -837.622)"/>
      <path id="Path_25" data-name="Path 25" class="cls-2" d="M1413.33,906.92h2.358a.283.283,0,0,1,.28.28v.817a.283.283,0,0,1-.28.28h-2.358a.283.283,0,0,1-.28-.28V907.2A.283.283,0,0,1,1413.33,906.92Z" transform="translate(-1277.274 -837.622)"/>
      <path id="Path_26" data-name="Path 26" class="cls-2" d="M1415.39,917.112V908.75a.283.283,0,0,1,.28-.28h.817a.283.283,0,0,1,.28.28v8.362a.283.283,0,0,1-.28.28h-.817A.283.283,0,0,1,1415.39,917.112Z" transform="translate(-1278.843 -838.661)"/>
      <path id="Path_27" data-name="Path 27" class="cls-2" d="M1404.83,917.112V908.75a.283.283,0,0,1,.28-.28h.817a.283.283,0,0,1,.28.28v8.362a.283.283,0,0,1-.28.28h-.817A.283.283,0,0,1,1404.83,917.112Z" transform="translate(-1271.761 -838.661)"/>
      <path id="Path_28" data-name="Path 28" class="cls-2" d="M1407.644,916.06l-3.333-8.83c-.066-.171.042-.31.237-.31h1.028a.534.534,0,0,1,.471.31l2.964,7.9c.254.659-.168,1.225-.939,1.225h0a.51.51,0,0,1-.448-.3Z" transform="translate(-1271.4 -837.622)"/>
      <path id="Path_29" data-name="Path 29" class="cls-2" d="M1431.57,931.38h2.931a.283.283,0,0,1,.28.28v.817a.284.284,0,0,1-.28.28h-2.931a.283.283,0,0,1-.28-.28v-.817A.283.283,0,0,1,1431.57,931.38Z" transform="translate(-1289.507 -854.026)"/>
      <path id="Path_30" data-name="Path 30" class="cls-2" d="M1431.57,906.92h1.874a.283.283,0,0,1,.28.28v1.1h-2.154a.283.283,0,0,1-.28-.28V907.2A.283.283,0,0,1,1431.57,906.92Z" transform="translate(-1289.506 -837.622)"/>
      <path id="Path_31" data-name="Path 31" class="cls-2" d="M1434.5,917.046v-8.287a.329.329,0,0,1,.329-.329h.926a.329.329,0,0,1,.329.329v8.287a.329.329,0,0,1-.329.329h-.926A.329.329,0,0,1,1434.5,917.046Z" transform="translate(-1291.659 -838.634)"/>
      <path id="Path_32" data-name="Path 32" class="cls-2" d="M1436.393,908.033l-1.4-1.113h2.19q2.394.211,2.414,2.2a2.671,2.671,0,0,1-.784,2.144,2.432,2.432,0,0,1,1.3,2.266q-.119,3.02-3.623,2.826l-.092-1.377h.576a1.176,1.176,0,0,0,1.192-1.42q.069-1.739-1.782-1.667c0-.2-.329-.389-.329-.527a.524.524,0,0,1,.329-.435q1.456.109,1.479-1.238.155-1.686-1.479-1.647Z" transform="translate(-1291.988 -837.622)"/>
      <path id="Path_33" data-name="Path 33" class="cls-2" d="M1460.58,906.92h2.358a.283.283,0,0,1,.28.28v.817a.283.283,0,0,1-.28.28h-2.358a.283.283,0,0,1-.28-.28V907.2A.283.283,0,0,1,1460.58,906.92Z" transform="translate(-1308.962 -837.622)"/>
      <path id="Path_34" data-name="Path 34" class="cls-2" d="M1471.95,906.92h2.358a.283.283,0,0,1,.28.28v.817a.283.283,0,0,1-.28.28h-2.358a.283.283,0,0,1-.28-.28V907.2A.283.283,0,0,1,1471.95,906.92Z" transform="translate(-1316.587 -837.622)"/>
      <path id="Path_35" data-name="Path 35" class="cls-2" d="M1463,914.763v-6a.329.329,0,0,1,.329-.329h.925a.329.329,0,0,1,.329.329v6a.329.329,0,0,1-.329.329h-.925A.329.329,0,0,1,1463,914.763Z" transform="translate(-1310.773 -838.634)"/>
      <path id="Path_36" data-name="Path 36" class="cls-2" d="M1473.72,914.813V908.75a.29.29,0,0,1,.29-.29h.84a.29.29,0,0,1,.29.29v6.063a.29.29,0,0,1-.29.29h-.84A.29.29,0,0,1,1473.72,914.813Z" transform="translate(-1317.962 -838.655)"/>
      <path id="Path_37" data-name="Path 37" class="cls-2" d="M1466.531,927.1l1.416.194a2.168,2.168,0,0,1-2.385,2.434,2.3,2.3,0,0,1-2.562-2.464l1.564-.194q.066,1.647,1.057,1.647.942.046.909-1.6Z" transform="translate(-1310.773 -851.135)"/>
      <path id="Path_38" data-name="Path 38" class="cls-3" d="M1353.141,960.993a3.156,3.156,0,0,1,2.306.922,3.2,3.2,0,0,1-2.263,5.467,3.109,3.109,0,0,1-2.282-.926,3.046,3.046,0,0,1-.932-2.24,3.247,3.247,0,0,1,.425-1.624,3.132,3.132,0,0,1,2.74-1.594Zm.026.593a2.511,2.511,0,0,0-1.278.353,2.54,2.54,0,0,0-.945.945,2.637,2.637,0,0,0-.329,1.318,2.559,2.559,0,0,0,2.562,2.575,2.6,2.6,0,0,0,1.318-.329,2.454,2.454,0,0,0,.942-.939,2.635,2.635,0,0,0,.329-1.318,2.574,2.574,0,0,0-.329-1.317,2.522,2.522,0,0,0-.952-.935,2.568,2.568,0,0,0-1.3-.352Zm4.749,1.318h-.425l-.089-1.914h.609l-.1,1.914Zm1.126-1.169v-.593h3.211l-2.552,5.49h2.424v.593h-3.353l2.563-5.49Zm4.041,5.49.843-6.083h.125l2.477,4.99,2.46-4.99h.092l.876,6.083h-.59l-.616-4.364-2.154,4.354h-.151l-2.177-4.39-.583,4.39Zm7.974-6.093h.609v6.083h-.609Zm2,0h.609v5.49H1376v.593h-2.964v-6.083Zm3.913,0h.609v5.49h2.348v.593h-2.964v-6.083Zm3.827,0h.609v6.083h-.609Zm1.525,0h.695l1.574,2.539,1.548-2.539h.692l-1.933,3.175v2.908h-.609v-2.908l-1.976-3.175Zm5.507,0h1.2a2.843,2.843,0,0,1,1.113.171,1.358,1.358,0,0,1,.616.527,1.437,1.437,0,0,1-.55,2.068,2.209,2.209,0,0,1,.728.379,1.49,1.49,0,0,1,.4.527,1.578,1.578,0,0,1,.142.659,1.647,1.647,0,0,1-.537,1.238,2.01,2.01,0,0,1-1.436.507h-1.67v-6.077Zm.593.593v1.95h.349a2.756,2.756,0,0,0,.935-.119,1.008,1.008,0,0,0,.474-.372.988.988,0,0,0,.175-.563.8.8,0,0,0-.293-.659,1.486,1.486,0,0,0-.932-.237Zm0,2.559v2.338h.751a2.728,2.728,0,0,0,.988-.128,1.115,1.115,0,0,0,.5-.408,1.067,1.067,0,0,0-.076-1.317,1.367,1.367,0,0,0-.728-.415,5.354,5.354,0,0,0-1.084-.076Zm6.745-3.152,2.839,6.083h-.659l-.952-2h-2.635l-.945,2h-.678l2.872-6.083Zm-.076,1.278-1.047,2.213h2.088Zm3.86,4.809v-6.086h.132l4.045,4.654v-4.654h.609v6.083h-.138l-4.021-4.611v4.611Zm6.258-6.083h.619v2.282l2.437-2.282h.82l-2.931,2.727,3.162,3.356h-.814l-2.674-2.842v2.842h-.619v-6.086Z" transform="translate(-1234.969 -873.883)"/>
    </g>
  </g>
</svg>
