<svg width="301" height="157" viewBox="0 0 301 157" fill="none" xmlns="http://www.w3.org/2000/svg">
<circle cx="108.904" cy="29.7945" r="6.71918" stroke="#F5B840" stroke-width="3"/>
<path d="M293.836 50.3424V50.8424H294.336V50.3424H293.836ZM293.836 51.3424H294.336V50.8424H293.836V51.3424ZM294.836 51.3424V50.8424H294.336V51.3424H294.836ZM294.836 50.3424H294.336V50.8424H294.836V50.3424ZM294.336 45.7054H295.336C295.336 45.1532 294.888 44.7054 294.336 44.7054V45.7054ZM294.336 45.7054V44.7054C293.783 44.7054 293.336 45.1532 293.336 45.7054H294.336ZM294.336 50.3424V45.7054H293.336V50.3424H294.336ZM289.199 50.8424H293.836V49.8424H289.199V50.8424ZM289.199 50.8424V49.8424C288.646 49.8424 288.199 50.2901 288.199 50.8424H289.199ZM289.199 50.8424H288.199C288.199 51.3947 288.646 51.8424 289.199 51.8424V50.8424ZM293.836 50.8424H289.199V51.8424H293.836V50.8424ZM294.336 56.0068V51.3424H293.336V56.0068H294.336ZM294.336 56.0068H293.336C293.336 56.5591 293.783 57.0068 294.336 57.0068V56.0068ZM294.336 56.0068V57.0068C294.888 57.0068 295.336 56.5591 295.336 56.0068H294.336ZM294.336 51.3424V56.0068H295.336V51.3424H294.336ZM299.5 50.8424H294.836V51.8424H299.5V50.8424ZM299.5 50.8424V51.8424C300.052 51.8424 300.5 51.3947 300.5 50.8424H299.5ZM299.5 50.8424H300.5C300.5 50.2901 300.052 49.8424 299.5 49.8424V50.8424ZM294.836 50.8424H299.5V49.8424H294.836V50.8424ZM294.336 45.7054V50.3424H295.336V45.7054H294.336Z" fill="#F5B840"/>
<rect x="165.411" width="52.3973" height="14.3836" rx="7.19178" fill="#FDF6E9"/>
<rect x="226.027" y="4.10962" width="18.4932" height="13.3562" rx="6.67808" fill="#FDF6E9"/>
<rect x="171.575" y="24.6576" width="68.8356" height="14.3836" rx="7.19178" fill="#FDF6E9"/>
<path fill-rule="evenodd" clip-rule="evenodd" d="M185.651 26.7123L177.74 26.7123V25.8958C179.101 25.0024 180 23.4624 180 21.7123L180 17.3287C180 15.5786 179.101 14.0386 177.74 13.1452V12.3287H185.651H198.082H200.343V13.1452C198.981 14.0385 198.082 15.5786 198.082 17.3287V21.7123C198.082 23.4624 198.981 25.0024 200.343 25.8958V26.7123H198.082H185.651Z" fill="#FDF6E9"/>
<path fill-rule="evenodd" clip-rule="evenodd" d="M172.296 77.1918C172.296 79.8962 170.149 82.0991 167.466 82.1889L167.466 82.1918L184.368 82.1918H210.924H215.754V82.1889C213.072 82.0988 210.925 79.896 210.925 77.1918V72.8082C210.925 70.104 213.072 67.9012 215.754 67.8111V67.8082L210.924 67.8082L204.955 67.8082H184.368L167.466 67.8082L167.466 67.8111C170.149 67.901 172.296 70.1039 172.296 72.8082L172.296 77.1918Z" fill="#FDF6E9"/>
<rect x="94.5205" y="54.452" width="170.548" height="14.3836" rx="7.19178" fill="#FDF6E9"/>
<rect x="136.644" y="81.1644" width="111.986" height="14.3836" rx="7.19178" fill="#FDF6E9"/>
<path fill-rule="evenodd" clip-rule="evenodd" d="M57.0466 110.069C57.0466 112.827 54.8135 115.063 52.0568 115.069L79.5047 115.068L128.912 115.068L137.897 115.068L133.912 115.068C131.15 115.068 128.912 112.83 128.912 110.068V105.685C128.912 102.926 131.146 100.689 133.904 100.685H128.912H79.5047H48.061L52.0466 100.685C54.808 100.685 57.0466 102.924 57.0466 105.685L57.0466 110.069Z" fill="#FDF6E9"/>
<rect x="30.8218" y="87.3287" width="153.082" height="14.3836" rx="7.19178" fill="#FDF6E9"/>
<rect y="114.041" width="141.781" height="14.3836" rx="7.19178" fill="#FDF6E9"/>
<rect x="279.452" y="63.6986" width="17.4658" height="13.3562" rx="6.67808" fill="#FDF6E9"/>
<path d="M157.192 45.665L207.907 128.884H106.476L157.192 45.665Z" fill="#F9D89C"/>
<path d="M157.192 43.6102L199.9 122.206H114.483L157.192 43.6102Z" fill="#FBEDC7"/>
<line x1="157.664" y1="75.9321" x2="157.664" y2="97.5897" stroke="white" stroke-width="3" stroke-linecap="round"/>
<line x1="157.664" y1="109.836" x2="157.664" y2="113.001" stroke="white" stroke-width="3" stroke-linecap="round"/>
<line x1="155.609" y1="72.85" x2="155.609" y2="94.5075" stroke="#F5B840" stroke-width="3" stroke-linecap="round"/>
<line x1="155.609" y1="106.754" x2="155.609" y2="109.918" stroke="#F5B840" stroke-width="3" stroke-linecap="round"/>
<mask id="path-20-inside-1" fill="white">
<path fill-rule="evenodd" clip-rule="evenodd" d="M157.459 36.1503C158.174 36.5697 158.413 37.4888 157.994 38.2033L131.773 82.8763C131.353 83.5907 130.434 83.83 129.72 83.4106C129.005 82.9913 128.766 82.0721 129.185 81.3577L155.406 36.6847C155.826 35.9702 156.745 35.731 157.459 36.1503ZM105.867 121.073C105.881 120.872 105.936 120.67 106.036 120.48L111.893 109.362C112.279 108.629 113.186 108.347 113.919 108.734C114.652 109.12 114.933 110.027 114.547 110.76L109.308 120.706H202.285L194.638 108.248C194.205 107.542 194.426 106.618 195.132 106.185C195.838 105.751 196.762 105.972 197.195 106.679L206.244 121.422C206.677 122.128 206.456 123.051 205.75 123.485C205.345 123.733 204.868 123.766 204.453 123.616C204.293 123.674 204.12 123.706 203.94 123.706H106.85C106.021 123.706 105.35 123.035 105.35 122.206C105.35 121.754 105.55 121.348 105.867 121.073ZM161.579 42.8688C162.299 42.4593 163.215 42.7111 163.625 43.4312L191.936 93.2206C192.346 93.9408 192.094 94.8565 191.374 95.266C190.654 95.6755 189.738 95.4237 189.328 94.7035L161.017 44.9142C160.607 44.194 160.859 43.2783 161.579 42.8688Z"/>
</mask>
<path d="M157.994 38.2033L160.581 39.7219L160.581 39.7219L157.994 38.2033ZM157.459 36.1503L158.978 33.5631L158.978 33.5631L157.459 36.1503ZM131.773 82.8763L134.36 84.3949L134.36 84.3949L131.773 82.8763ZM129.185 81.3577L126.598 79.8391L126.598 79.8391L129.185 81.3577ZM155.406 36.6847L157.994 38.2033L157.994 38.2033L155.406 36.6847ZM106.036 120.48L108.69 121.878L108.69 121.878L106.036 120.48ZM105.867 121.073L107.833 123.338L108.772 122.523L108.859 121.283L105.867 121.073ZM111.893 109.362L109.239 107.963L109.239 107.963L111.893 109.362ZM113.919 108.734L115.318 106.079H115.318L113.919 108.734ZM114.547 110.76L111.893 109.362L111.893 109.362L114.547 110.76ZM109.308 120.706L106.653 119.308L104.336 123.706H109.308V120.706ZM202.285 120.706V123.706H207.646L204.842 119.137L202.285 120.706ZM194.638 108.248L192.081 109.817V109.817L194.638 108.248ZM195.132 106.185L193.563 103.628H193.563L195.132 106.185ZM197.195 106.679L199.752 105.109L197.195 106.679ZM206.244 121.422L203.687 122.991L206.244 121.422ZM205.75 123.485L207.32 126.041L207.32 126.041L205.75 123.485ZM204.453 123.616L205.476 120.796L204.451 120.424L203.426 120.797L204.453 123.616ZM163.625 43.4312L161.017 44.9142V44.9142L163.625 43.4312ZM161.579 42.8688L163.062 45.4766L163.062 45.4766L161.579 42.8688ZM191.936 93.2206L194.544 91.7377V91.7377L191.936 93.2206ZM191.374 95.266L192.857 97.8739L192.857 97.8739L191.374 95.266ZM189.328 94.7035L191.936 93.2206L189.328 94.7035ZM161.017 44.9142L163.625 43.4312L163.625 43.4312L161.017 44.9142ZM160.581 39.7219C161.839 37.5785 161.121 34.8211 158.978 33.5631L155.941 38.7376C155.226 38.3182 154.987 37.3991 155.406 36.6847L160.581 39.7219ZM134.36 84.3949L160.581 39.7219L155.406 36.6847L129.185 81.3577L134.36 84.3949ZM128.201 85.9979C130.344 87.2559 133.102 86.5382 134.36 84.3949L129.185 81.3577C129.605 80.6432 130.524 80.404 131.238 80.8234L128.201 85.9979ZM126.598 79.8391C125.34 81.9824 126.058 84.7398 128.201 85.9979L131.238 80.8234C131.953 81.2427 132.192 82.1618 131.773 82.8763L126.598 79.8391ZM152.819 35.1661L126.598 79.8391L131.773 82.8763L157.994 38.2033L152.819 35.1661ZM158.978 33.5631C156.835 32.305 154.077 33.0227 152.819 35.1661L157.994 38.2033C157.574 38.9177 156.655 39.1569 155.941 38.7376L158.978 33.5631ZM103.382 119.081C103.084 119.647 102.917 120.255 102.874 120.863L108.859 121.283C108.845 121.489 108.788 121.693 108.69 121.878L103.382 119.081ZM109.239 107.963L103.382 119.081L108.69 121.878L114.547 110.76L109.239 107.963ZM115.318 106.079C113.119 104.921 110.397 105.764 109.239 107.963L114.547 110.76C114.161 111.493 113.254 111.774 112.521 111.388L115.318 106.079ZM117.202 112.158C118.36 109.959 117.516 107.238 115.318 106.079L112.521 111.388C111.788 111.002 111.507 110.095 111.893 109.362L117.202 112.158ZM111.962 122.104L117.202 112.158L111.893 109.362L106.653 119.308L111.962 122.104ZM109.308 123.706H202.285V117.706H109.308V123.706ZM204.842 119.137L197.195 106.679L192.081 109.817L199.728 122.275L204.842 119.137ZM197.195 106.679C197.628 107.385 197.407 108.308 196.701 108.742L193.563 103.628C191.445 104.928 190.781 107.699 192.081 109.817L197.195 106.679ZM196.701 108.742C195.995 109.175 195.072 108.954 194.638 108.248L199.752 105.109C198.452 102.991 195.681 102.328 193.563 103.628L196.701 108.742ZM194.638 108.248L203.687 122.991L208.801 119.852L199.752 105.109L194.638 108.248ZM203.687 122.991C203.254 122.285 203.475 121.361 204.181 120.928L207.32 126.041C209.438 124.741 210.101 121.97 208.801 119.852L203.687 122.991ZM204.181 120.928C204.587 120.678 205.069 120.648 205.476 120.796L203.43 126.436C204.667 126.885 206.102 126.788 207.32 126.041L204.181 120.928ZM203.426 120.797C203.59 120.737 203.765 120.706 203.94 120.706V126.706C204.475 126.706 204.996 126.611 205.48 126.435L203.426 120.797ZM203.94 120.706H106.85V126.706H203.94V120.706ZM106.85 120.706C107.678 120.706 108.35 121.378 108.35 122.206H102.35C102.35 124.691 104.364 126.706 106.85 126.706V120.706ZM108.35 122.206C108.35 122.659 108.145 123.068 107.833 123.338L103.9 118.808C102.955 119.628 102.35 120.848 102.35 122.206H108.35ZM166.232 41.9483C165.004 39.7879 162.257 39.0324 160.096 40.2609L163.062 45.4766C162.342 45.8861 161.426 45.6343 161.017 44.9142L166.232 41.9483ZM194.544 91.7377L166.232 41.9483L161.017 44.9142L189.328 94.7035L194.544 91.7377ZM192.857 97.8739C195.017 96.6454 195.773 93.8982 194.544 91.7377L189.328 94.7035C188.919 93.9834 189.171 93.0677 189.891 92.6582L192.857 97.8739ZM186.72 96.1865C187.949 98.3469 190.696 99.1024 192.857 97.8739L189.891 92.6581C190.611 92.2487 191.527 92.5005 191.936 93.2206L186.72 96.1865ZM158.409 46.3971L186.72 96.1865L191.936 93.2206L163.625 43.4312L158.409 46.3971ZM160.096 40.2609C157.936 41.4894 157.18 44.2366 158.409 46.3971L163.625 43.4312C164.034 44.1514 163.782 45.0671 163.062 45.4766L160.096 40.2609Z" fill="#F5B840" mask="url(#path-20-inside-1)"/>
</svg>
