<svg width="301" height="132" viewBox="0 0 301 132" fill="none" xmlns="http://www.w3.org/2000/svg">
<circle cx="108.904" cy="27.7397" r="6.71918" stroke="#EB5533" stroke-width="3"/>
<circle cx="213.699" cy="109.931" r="6.71918" stroke="#EFA092" stroke-width="3"/>
<path d="M293.836 48.2876V48.7876H294.336V48.2876H293.836ZM293.836 49.2876H294.336V48.7876H293.836V49.2876ZM294.836 49.2876V48.7876H294.336V49.2876H294.836ZM294.836 48.2876H294.336V48.7876H294.836V48.2876ZM294.336 43.6506H295.336C295.336 43.0984 294.888 42.6506 294.336 42.6506V43.6506ZM294.336 43.6506V42.6506C293.783 42.6506 293.336 43.0984 293.336 43.6506H294.336ZM294.336 48.2876V43.6506H293.336V48.2876H294.336ZM289.199 48.7876H293.836V47.7876H289.199V48.7876ZM289.199 48.7876V47.7876C288.646 47.7876 288.199 48.2353 288.199 48.7876H289.199ZM289.199 48.7876H288.199C288.199 49.3399 288.646 49.7876 289.199 49.7876V48.7876ZM293.836 48.7876H289.199V49.7876H293.836V48.7876ZM294.336 53.952V49.2876H293.336V53.952H294.336ZM294.336 53.952H293.336C293.336 54.5043 293.783 54.952 294.336 54.952V53.952ZM294.336 53.952V54.952C294.888 54.952 295.336 54.5043 295.336 53.952H294.336ZM294.336 49.2876V53.952H295.336V49.2876H294.336ZM299.5 48.7876H294.836V49.7876H299.5V48.7876ZM299.5 48.7876V49.7876C300.052 49.7876 300.5 49.3399 300.5 48.7876H299.5ZM299.5 48.7876H300.5C300.5 48.2353 300.052 47.7876 299.5 47.7876V48.7876ZM294.836 48.7876H299.5V47.7876H294.836V48.7876ZM294.336 43.6506V48.2876H295.336V43.6506H294.336Z" fill="#EB5533"/>
<rect x="165.411" width="52.3973" height="14.3836" rx="7.19178" fill="#FBE8E7"/>
<rect x="226.027" y="4.10962" width="18.4932" height="13.3562" rx="6.67808" fill="#FBE8E7"/>
<rect x="171.575" y="24.6576" width="68.8356" height="14.3836" rx="7.19178" fill="#FBE8E7"/>
<path fill-rule="evenodd" clip-rule="evenodd" d="M180 21.7125C180 23.4625 179.101 25.0026 177.74 25.896L177.74 26.7124L185.651 26.7124H198.082H200.343V25.896C198.981 25.0026 198.082 23.4625 198.082 21.7125V17.3289C198.082 15.5788 198.981 14.0387 200.343 13.1454V12.3289H198.082H185.651H177.74V13.1454C179.101 14.0388 180 15.5788 180 17.3289L180 21.7125Z" fill="#FBE8E7"/>
<path fill-rule="evenodd" clip-rule="evenodd" d="M185.24 77.1918C185.24 79.3903 183.821 81.2573 181.849 81.9272L181.849 82.1918L193.716 82.1918H212.363H215.754V81.9272C213.782 81.2572 212.363 79.3902 212.363 77.1918V72.8082C212.363 70.6098 213.782 68.7428 215.754 68.0728V67.8082H212.363H193.716H181.849V68.0728C183.821 68.7427 185.24 70.6098 185.24 72.8082L185.24 77.1918Z" fill="#FBE8E7"/>
<rect x="92.4658" y="54.452" width="172.603" height="14.3836" rx="7.19178" fill="#FBE8E7"/>
<rect x="106.849" y="81.1644" width="141.781" height="14.3836" rx="7.19178" fill="#FBE8E7"/>
<path fill-rule="evenodd" clip-rule="evenodd" d="M55.4796 108.014C55.4796 110.77 53.2497 113.005 50.4957 113.014L72.6879 113.014L110.546 113.014L115.535 113.014C112.791 113.008 110.565 110.792 110.546 108.05L110.546 103.594C110.565 100.849 112.796 98.6301 115.545 98.6301L117.43 98.6301H110.546H72.6879H48.5947L50.4796 98.6302C53.241 98.6302 55.4796 100.869 55.4796 103.63L55.4796 108.014Z" fill="#FBE8E7"/>
<rect x="30.8218" y="85.2739" width="153.082" height="14.3836" rx="7.19178" fill="#FBE8E7"/>
<rect y="111.986" width="141.781" height="14.3836" rx="7.19178" fill="#FBE8E7"/>
<path d="M189.041 86.3013C189.041 110.133 169.722 129.452 145.89 129.452C122.059 129.452 102.74 110.133 102.74 86.3013C102.74 62.4699 122.059 43.1506 145.89 43.1506C169.722 43.1506 189.041 62.4699 189.041 86.3013Z" fill="#F5C3BE"/>
<line x1="161.233" y1="69.9283" x2="130.545" y2="98.6985" stroke="white" stroke-width="3" stroke-linecap="round"/>
<line x1="161.233" y1="71.9831" x2="130.545" y2="100.753" stroke="#EB5533" stroke-width="3" stroke-linecap="round"/>
<path fill-rule="evenodd" clip-rule="evenodd" d="M142.294 126.37C166.126 126.37 185.445 107.051 185.445 83.2192C185.445 72.0886 183.967 64.1602 177.047 56.5068C185.777 64.403 191.263 75.8205 191.263 88.5193C191.263 112.351 171.944 131.67 148.112 131.67C135.411 131.67 123.992 126.183 116.096 117.45C123.75 124.372 131.162 126.37 142.294 126.37Z" fill="#EFA092"/>
<path d="M103.767 84.7603C104.794 65.7535 115.068 52.3973 128.425 48.2877" stroke="#EB5533" stroke-width="3" stroke-linecap="round"/>
<path d="M109.932 108.39C122.26 126.37 142.295 132.534 162.329 124.315" stroke="#EB5533" stroke-width="3" stroke-linecap="round"/>
<path d="M168.107 119.519C167.444 120.016 167.31 120.956 167.807 121.619C168.304 122.282 169.244 122.416 169.907 121.919L168.107 119.519ZM179.989 111.829C180.469 111.155 180.312 110.218 179.638 109.737C178.963 109.257 178.026 109.414 177.546 110.088L179.989 111.829ZM169.907 121.919C174.109 118.767 176.973 116.061 179.989 111.829L177.546 110.088C174.748 114.013 172.124 116.507 168.107 119.519L169.907 121.919Z" fill="#EB5533"/>
<path d="M181.85 105.822C198.288 77.0548 173.63 38.5274 136.644 45.7193" stroke="#EB5533" stroke-width="3" stroke-linecap="round"/>
<rect x="279.452" y="59.589" width="17.4658" height="13.3562" rx="6.67808" fill="#FBE8E7"/>
</svg>
