<svg width="17" height="18" viewBox="0 0 17 18" fill="none" xmlns="http://www.w3.org/2000/svg">
<g opacity="0.76">
<path fill-rule="evenodd" clip-rule="evenodd" d="M9.09279 1.15527L15.0379 4.12782C15.543 4.37879 15.8625 4.89403 15.8628 5.45803V12.5401C15.8625 13.1041 15.543 13.6194 15.0379 13.8703L9.09279 16.8429C8.67413 17.0524 8.18124 17.0524 7.76258 16.8429L1.81749 13.8703C1.31289 13.6161 0.996104 13.0977 1.00004 12.5327V5.45803C1.00034 4.89403 1.31984 4.37879 1.82492 4.12782L7.77001 1.15527C8.18663 0.948243 8.67616 0.948243 9.09279 1.15527Z" stroke="#6C70F0" stroke-width="2" stroke-linecap="round" stroke-linejoin="round"/>
<path d="M1.23779 4.65552L8.43135 8.2523L15.6249 4.65552" stroke="#6C70F0" stroke-width="2" stroke-linecap="round" stroke-linejoin="round"/>
<path d="M8.43114 16.992V8.25269" stroke="#6C70F0" stroke-width="2" stroke-linecap="round" stroke-linejoin="round"/>
<path d="M4.71582 2.67871L12.1472 6.39439" stroke="#6C70F0" stroke-width="2" stroke-linecap="round" stroke-linejoin="round"/>
</g>
</svg>
